<?xml version="1.0" encoding="UTF-8"?>
<svg id="Capa_2" data-name="Capa 2" xmlns="http://www.w3.org/2000/svg" viewBox="0 0 582.45 193.14">
  <defs>
    <style>
      .cls-1 {
        fill: #1034a3;
      }

      .cls-2 {
        fill: #020102;
      }

      .cls-3 {
        fill: #e6007e;
      }
    </style>
  </defs>
  <g id="OBJECTS">
    <g>
      <path class="cls-3" d="M0,191.46H135.7c10.44,0,18.9-8.46,18.9-18.9v-36.84c0-7.95,5.53-14.75,13.27-16.57,5.55-1.31,10.74-3.24,15.57-5.8,9.9-5.24,17.61-12.43,23.15-21.57,5.54-9.14,8.3-19.51,8.3-31.1,0-11.59-2.77-21.96-8.3-31.1-5.54-9.14-13.25-16.32-23.15-21.57C173.53,2.77,162.13,.15,149.21,.15H0S0,191.46,0,191.46Z"/>
      <path class="cls-1" d="M134.9,95.74c0,18.34-3.52,34.73-10.55,49.19-7.03,14.45-16.83,25.82-29.41,34.11-12.58,8.29-27.06,12.44-43.47,12.44H0S0,0,0,0H51.47c16.41,0,30.89,4.15,43.47,12.44,12.58,8.29,22.38,19.66,29.41,34.11,7.03,14.45,10.55,30.85,10.55,49.19Z"/>
      <path class="cls-2" d="M4.64,.46c1.7,.21,3.38,.77,4.98,1.74,7.79,4.73,16.94,12.04,21.38,24.58l15.84,44.73c2.66,7.51,4.93,15.3,4.94,24.32,.01,5.34-.71,11.39-2.33,16.03l-14.9,42.81c-5.84,16.79-14.82,29.75-26.36,34.85-.29,.13-.57,.24-.81,.39-1.01,.65-2.04,1.16-3.12,1.31-1.41,.2-2.75,.46-4.26-.08V.42c1.68-.58,3.2-.14,4.63,.04Z"/>
    </g>
    <g>
      <path d="M275.85,7.77c7.76,0,14.74,1.78,20.94,5.29,6.2,3.51,11,8.39,14.46,14.66,3.46,6.27,5.19,13.4,5.19,21.27s-1.73,15.01-5.19,21.27-8.26,11.15-14.46,14.66-13.18,5.29-20.94,5.29h-33.11V7.77h33.11Zm-2.12,68.36c7.09,0,13.18-2.59,18.15-7.7,4.97-5.12,7.43-11.56,7.43-19.43,0-5.29-1.17-10-3.46-14.2s-5.42-7.36-9.27-9.6c-3.85-2.24-8.15-3.33-12.84-3.33h-13.85v54.28h13.85Z"/>
      <path d="M349.15,7.77h17.14V90.22h-17.14V7.77Z"/>
      <path d="M439.26,43.42h43.77v5.58c0,12.13-4.63,23-12.12,30.36s-18.2,11.79-29.87,11.79-22.39-4.43-29.87-11.79-12.17-18.28-12.17-30.36,4.69-23,12.17-30.36c7.48-7.3,18.09-11.79,29.87-11.79,8.04,0,15.3,1.9,21.72,5.63,6.42,3.74,11.39,8.91,14.85,15.52l-15.13,7.42c-2.12-3.85-5.08-6.84-8.88-9.08-3.85-2.19-8.04-3.28-12.56-3.28-7.03,0-13.01,2.47-17.87,7.42-4.91,4.94-7.37,11.1-7.37,18.51s2.46,13.63,7.31,18.57c4.86,4.94,10.83,7.42,17.92,7.42,5.25,0,10.05-1.72,14.4-5.12,4.35-3.39,7.43-7.65,9.27-12.65h-25.46v-13.8Z"/>
      <path d="M564.81,90.22l-4.35-14.26h-32.88l-4.3,14.26h-17.59l25.18-82.45h26.35l25.24,82.45h-17.64Zm-32.94-28.35h24.29l-12.12-39.73-12.17,39.73Z"/>
      <path d="M274.91,110c7.82,0,14.91,3.1,19.65,7.99,4.69,4.89,7.65,11.9,7.65,19.49s-2.57,14.14-7.7,19.38c-5.19,5.23-11.72,7.82-19.6,7.82h-22.05v27.77h-6.81V110h28.87Zm-.67,48.76c5.86,0,10.89-2.07,14.96-6.21s6.09-9.2,6.14-15.12-2.01-10.98-6.09-15.18c-4.08-4.2-9.1-6.32-15.02-6.32h-21.38v42.83h21.38Z"/>
      <path d="M377.03,154.62c-3.85,4.89-8.88,7.99-15.07,9.31l17.81,28.52h-7.15l-17.25-27.77h-21.94v27.77h-6.81V110h28.87c15.97,0,27.25,12.19,27.3,27.48,0,6.55-1.9,12.25-5.75,17.13Zm-43.6-38.69v42.83h21.38c5.86,0,10.89-2.07,14.96-6.21s6.09-9.2,6.14-15.12-2.01-10.98-6.09-15.18c-4.08-4.2-9.1-6.32-15.02-6.32h-21.38Z"/>
      <path d="M407.29,110h6.81v82.45h-6.81V110Z"/>
      <path d="M493.06,110h6.87v83.14l-52.2-65.83v65.14h-6.81V109.31l52.15,65.83V110Z"/>
      <path d="M576.87,110v5.92h-22.83v76.53h-6.87V115.93h-22.78v-5.92h52.48Z"/>
    </g>
  </g>
</svg>