<?xml version="1.0" encoding="UTF-8"?>
<svg id="Capa_2" data-name="Capa 2" xmlns="http://www.w3.org/2000/svg" viewBox="0 0 214.88 191.47">
  <defs>
    <style>
      .cls-1 {
        fill: #1034a3;
      }

      .cls-2 {
        fill: #020102;
      }

      .cls-3 {
        fill: #e6007e;
      }
    </style>
  </defs>
  <g id="OBJECTS">
    <g>
      <path class="cls-3" d="M0,191.46H135.7c10.44,0,18.9-8.46,18.9-18.9v-36.84c0-7.95,5.53-14.75,13.27-16.57,5.55-1.31,10.74-3.24,15.57-5.8,9.9-5.24,17.61-12.43,23.15-21.57,5.54-9.14,8.3-19.51,8.3-31.1,0-11.59-2.77-21.96-8.3-31.1-5.54-9.14-13.25-16.32-23.15-21.57C173.53,2.77,162.13,.15,149.21,.15H0S0,191.46,0,191.46Z"/>
      <path class="cls-1" d="M134.9,95.74c0,18.34-3.52,34.73-10.55,49.19-7.03,14.45-16.83,25.82-29.41,34.11-12.58,8.29-27.06,12.44-43.47,12.44H0S0,0,0,0H51.47c16.41,0,30.89,4.15,43.47,12.44,12.58,8.29,22.38,19.66,29.41,34.11,7.03,14.45,10.55,30.85,10.55,49.19Z"/>
      <path class="cls-2" d="M4.64,.46c1.7,.21,3.38,.77,4.98,1.74,7.79,4.73,16.94,12.04,21.38,24.58l15.84,44.73c2.66,7.51,4.93,15.3,4.94,24.32,.01,5.34-.71,11.39-2.33,16.03l-14.9,42.81c-5.84,16.79-14.82,29.75-26.36,34.85-.29,.13-.57,.24-.81,.39-1.01,.65-2.04,1.16-3.12,1.31-1.41,.2-2.75,.46-4.26-.08V.42c1.68-.58,3.2-.14,4.63,.04Z"/>
    </g>
  </g>
</svg>
